<mxfile host="app.diagrams.net" agent="Mozilla/5.0 (Windows NT 10.0; Win64; x64) AppleWebKit/537.36 (KHTML, like Gecko) Chrome/136.0.0.0 Safari/537.36" version="27.0.6">
  <diagram name="Page-1" id="iOl58zIFWyOfov3MsSK6">
    <mxGraphModel dx="1426" dy="751" grid="1" gridSize="10" guides="1" tooltips="1" connect="1" arrows="1" fold="1" page="1" pageScale="1" pageWidth="827" pageHeight="1169" background="#ffffff" math="0" shadow="0">
      <root>
        <mxCell id="0" />
        <mxCell id="1" parent="0" />
        <mxCell id="D0gI-NAcoA83U4GjyRF_-8" value="" style="rounded=0;whiteSpace=wrap;html=1;strokeColor=#FFFFFF;" vertex="1" parent="1">
          <mxGeometry x="144" y="250" width="540" height="540" as="geometry" />
        </mxCell>
        <mxCell id="D0gI-NAcoA83U4GjyRF_-1" value="" style="endArrow=classic;html=1;rounded=0;exitX=0.5;exitY=1;exitDx=0;exitDy=0;entryX=0.5;entryY=0;entryDx=0;entryDy=0;" edge="1" parent="1" source="D0gI-NAcoA83U4GjyRF_-7" target="D0gI-NAcoA83U4GjyRF_-2">
          <mxGeometry width="50" height="50" relative="1" as="geometry">
            <mxPoint x="390" y="610" as="sourcePoint" />
            <mxPoint x="440" y="560" as="targetPoint" />
          </mxGeometry>
        </mxCell>
        <mxCell id="D0gI-NAcoA83U4GjyRF_-2" value="&lt;font style=&quot;font-size: 16px;&quot;&gt;&lt;b&gt;Modular&lt;br&gt;Monolith&lt;/b&gt;&lt;/font&gt;" style="rounded=1;arcSize=10;whiteSpace=wrap;html=1;align=center;" vertex="1" parent="1">
          <mxGeometry x="346" y="670" width="136" height="90" as="geometry" />
        </mxCell>
        <mxCell id="D0gI-NAcoA83U4GjyRF_-3" value="&lt;strong data-end=&quot;75&quot; data-start=&quot;55&quot;&gt;Map the monolith&lt;/strong&gt;: Identify functional domains" style="rounded=1;arcSize=10;whiteSpace=wrap;html=1;align=center;" vertex="1" parent="1">
          <mxGeometry x="211" y="410" width="406" height="40" as="geometry" />
        </mxCell>
        <mxCell id="D0gI-NAcoA83U4GjyRF_-4" value="&lt;strong data-end=&quot;207&quot; data-start=&quot;185&quot;&gt;Define the modules&lt;/strong&gt;: Group code by business domain" style="rounded=1;arcSize=10;whiteSpace=wrap;html=1;align=center;" vertex="1" parent="1">
          <mxGeometry x="211" y="470" width="406" height="40" as="geometry" />
        </mxCell>
        <mxCell id="D0gI-NAcoA83U4GjyRF_-5" value="&lt;strong data-end=&quot;343&quot; data-start=&quot;319&quot;&gt;Isolate dependencies&lt;/strong&gt;: Reduce cross-module dependencies and remove direct data access between modules" style="rounded=1;arcSize=10;whiteSpace=wrap;html=1;align=center;" vertex="1" parent="1">
          <mxGeometry x="211" y="530" width="406" height="40" as="geometry" />
        </mxCell>
        <mxCell id="D0gI-NAcoA83U4GjyRF_-6" value="&lt;strong data-end=&quot;451&quot; data-start=&quot;428&quot;&gt;Encapsulate modules&lt;/strong&gt;: Each module should expose a clear public interface (internal API)" style="rounded=1;arcSize=10;whiteSpace=wrap;html=1;align=center;" vertex="1" parent="1">
          <mxGeometry x="211" y="590" width="406" height="40" as="geometry" />
        </mxCell>
        <mxCell id="D0gI-NAcoA83U4GjyRF_-7" value="&lt;font style=&quot;font-size: 16px;&quot;&gt;&lt;b&gt;Monolith&lt;/b&gt;&lt;/font&gt;" style="rounded=1;arcSize=10;whiteSpace=wrap;html=1;align=center;" vertex="1" parent="1">
          <mxGeometry x="346" y="280" width="136" height="90" as="geometry" />
        </mxCell>
      </root>
    </mxGraphModel>
  </diagram>
</mxfile>
